<svg width="242" height="69" viewBox="0 0 242 69" fill="none" xmlns="http://www.w3.org/2000/svg">
<path d="M112.728 51.672C100.44 46.2107 90.2 42.6267 82.008 40.92C74.1573 38.872 66.4773 37.848 58.968 37.848C49.4107 37.848 39.3413 40.7493 28.76 46.552C18.1787 52.3547 8.792 59.5227 0.6 68.056V28.12C16.984 10.0293 37.464 0.983994 62.04 0.983994C71.9387 0.983994 81.6667 2.00799 91.224 4.05598C101.123 6.10399 113.923 10.5413 129.624 17.368C141.912 22.8293 151.981 26.584 159.832 28.632C168.024 30.3387 175.704 31.192 182.872 31.192C192.771 31.192 203.011 28.2907 213.592 22.488C224.173 16.6853 233.56 9.51733 241.752 0.983994V40.408C225.027 58.84 204.547 68.056 180.312 68.056C170.755 68.056 160.856 67.032 150.616 64.984C140.717 62.5947 128.088 58.1573 112.728 51.672Z" fill="#0C3756"/>
<path d="M112.728 51.672C100.44 46.2107 90.2 42.6267 82.008 40.92C74.1573 38.872 66.4773 37.848 58.968 37.848C49.4107 37.848 39.3413 40.7493 28.76 46.552C18.1787 52.3547 8.792 59.5227 0.6 68.056V28.12C16.984 10.0293 37.464 0.983994 62.04 0.983994C71.9387 0.983994 81.6667 2.00799 91.224 4.05598C101.123 6.10399 113.923 10.5413 129.624 17.368C141.912 22.8293 151.981 26.584 159.832 28.632C168.024 30.3387 175.704 31.192 182.872 31.192C192.771 31.192 203.011 28.2907 213.592 22.488C224.173 16.6853 233.56 9.51733 241.752 0.983994V40.408C225.027 58.84 204.547 68.056 180.312 68.056C170.755 68.056 160.856 67.032 150.616 64.984C140.717 62.5947 128.088 58.1573 112.728 51.672Z" fill="url(#paint0_linear)"/>
<defs>
<linearGradient id="paint0_linear" x1="22.5" y1="40.6735" x2="238.5" y2="40.6735" gradientUnits="userSpaceOnUse">
<stop stop-color="#3A728E"/>
<stop offset="1" stop-color="white" stop-opacity="0"/>
</linearGradient>
</defs>
</svg>
